<?xml version="1.0" encoding="utf-8"?>
<!-- Generator: Adobe Illustrator 19.1.0, SVG Export Plug-In . SVG Version: 6.00 Build 0)  -->
<!DOCTYPE svg PUBLIC "-//W3C//DTD SVG 1.1//EN" "http://www.w3.org/Graphics/SVG/1.1/DTD/svg11.dtd">
<svg version="1.1" id="Layer_1" xmlns="http://www.w3.org/2000/svg" xmlns:xlink="http://www.w3.org/1999/xlink" x="0px" y="0px"
	 viewBox="-144 226 153 50" style="enable-background:new -144 226 153 50;" xml:space="preserve">
<style type="text/css">
	.st0{fill:#24ACE3;}
	.st1{fill:#FFFFFF;}
	.st2{fill:none;stroke:#FFFFFF;stroke-width:0.7807;stroke-miterlimit:10;}
	.st3{fill:none;stroke:#FFFFFF;stroke-width:1.3012;stroke-miterlimit:10;}
	.st4{fill:none;stroke:#D2D3D4;stroke-width:1.5;stroke-miterlimit:10;}
	.st5{fill:none;stroke:#D2D3D4;stroke-width:2.5;stroke-miterlimit:10;}
</style>
<g>
	<rect x="-144" y="226" class="st0" width="153.7" height="50"/>
</g>
<g>
	<path class="st1" d="M-120.6,272.9c-12.1,0-21.9-9.8-21.9-21.9c0-8.5,5-16.3,12.6-19.9l0.3,0.7c-7.4,3.5-12.2,11-12.2,19.2
		c0,11.7,9.5,21.2,21.2,21.2c10.2,0,18.9-7.2,20.8-17.2l0.8,0.1C-101,265.4-110.1,272.9-120.6,272.9z"/>
</g>
<g>
	<path class="st1" d="M-98.8,253.3l-0.8-0.1c0.1-0.7,0.1-1.5,0.1-2.3c0-11.7-9.5-21.2-21.2-21.2c-2.6,0-5,0.4-7.4,1.3l-0.2-0.6
		c2.5-0.9,5-1.4,7.7-1.4c12.1,0,21.9,9.8,21.9,21.9C-98.7,251.8-98.7,252.6-98.8,253.3z"/>
</g>
<g>
	<path class="st1" d="M-89.9,263.3c-1.5-0.5-2.7-1.1-3.5-1.8s-1.3-1.6-1.6-2.4s-0.4-1.8-0.4-2.7c0-2.2,0.7-3.8,2.2-4.9
		c1.5-1.1,3.7-1.8,6.5-2.4c1.2-0.2,2.4-0.4,3.3-0.5c1-0.1,1.7-0.2,2.3-0.4c0.6-0.1,1.1-0.2,1.5-0.4c0.4-0.1,0.7-0.2,1-0.4
		c0.2-0.1,0.5-0.2,0.5-0.4c0.1-0.1,0.1-0.4,0.1-0.7c0-1.2-0.4-2.2-1.2-2.7c-0.9-0.5-2.3-0.9-4.5-0.9c-2.8,0-5,0.1-6.4,0.4
		c-1.3,0.2-2.3,0.4-2.8,0.4c-0.4,0-0.5-0.1-0.5-0.5l-0.1-2.2c0-0.6,0.1-1.1,0.4-1.5c0.2-0.4,0.7-0.5,1.3-0.6
		c0.7-0.1,1.8-0.2,3.2-0.4s3.1-0.1,5-0.1c3.9,0,6.7,0.7,8.4,2.1c1.8,1.5,2.7,3.8,2.7,7.1v13.7c0,1.2-0.6,2-2,2.2s-2.9,0.5-4.5,0.5
		s-3.3,0.1-5,0.1C-86.3,264.1-88.4,263.8-89.9,263.3z M-77.9,251.7l-9.3,1.7c-1.8,0.4-2.7,1.3-2.7,2.8c0,1.2,0.6,2.1,1.7,2.6
		c1.1,0.5,2.7,0.6,4.7,0.6c1.1,0,2.1,0,3.2-0.1s1.8-0.2,2.3-0.4v-7.2H-77.9z"/>
	<path class="st1" d="M-49.9,239.1c0.1-0.4,0.2-0.7,0.5-1c0.2-0.2,0.6-0.2,1.2-0.2h3.7c0.4,0,0.6,0.2,0.6,0.6c0,0.1,0,0.2,0,0.4
		s-0.1,0.2-0.2,0.5l-9.3,24.2c-0.2,0.5-0.6,0.7-1.1,0.7h-5.6c-0.4,0-0.5-0.1-0.7-0.2c-0.1-0.1-0.2-0.4-0.4-0.6l-8.9-24
		c-0.1-0.2-0.1-0.5-0.1-0.7c0-0.4,0.2-0.6,0.6-0.6h3.9c1.1,0,1.7,0.4,2,1.2l6.7,19.7h0.1L-49.9,239.1z"/>
	<path class="st1" d="M-42.4,255.1v-16.5c0-0.4,0.2-0.6,0.6-0.6h4.4c0.4,0,0.6,0.2,0.6,0.6v15.7c0,2,0.4,3.3,1.2,4s2.3,1,4.7,1
		c1.7,0,3.1,0,3.9-0.1c0.9,0,1.6-0.1,2.1-0.2c0.5-0.1,0.7-0.4,0.7-0.9v-19.5c0-0.4,0.2-0.6,0.6-0.6h4.3c0.5,0,0.7,0.2,0.7,0.6v22.5
		c0,1.2-0.6,2.1-2,2.2c-1.5,0.4-3.1,0.6-4.7,0.7c-1.6,0.1-3.7,0.2-6.1,0.2c-3.9,0-6.9-0.7-8.6-2.1
		C-41.5,260.8-42.4,258.4-42.4,255.1z"/>
	<path class="st1" d="M7.2,247.2v16.5c0,0.4-0.2,0.6-0.6,0.6H2.2c-0.4,0-0.6-0.2-0.6-0.6V248c0-2-0.4-3.3-1.2-4
		c-0.9-0.6-2.3-1-4.7-1c-1.7,0-3.1,0-3.9,0.1c-0.9,0-1.6,0.1-2.1,0.2c-0.5,0.1-0.7,0.4-0.7,0.9v19.5c0,0.4-0.2,0.6-0.6,0.6H-16
		c-0.5,0-0.7-0.2-0.7-0.6v-22.5c0-1.2,0.6-2.1,2-2.2c1.5-0.4,3.1-0.6,4.7-0.7c1.6-0.1,3.7-0.2,6.1-0.2c3.9,0,6.9,0.7,8.6,2.1
		S7.2,243.9,7.2,247.2z"/>
</g>
<g>
	<path class="st1" d="M-121.4,265.1c-0.2,0.5-0.6,0.8-1.1,0.8h-3c-0.4,0-0.7-0.2-0.6-0.7c0-0.2,0.1-0.4,0.3-0.8l3.8-8.2l-5.8-13
		c-0.8-1.7-1.3-2.8-1.5-3.2c-0.2-0.5-0.2-0.8,0-0.9s0.5-0.2,0.9-0.2h2.1c0.5,0,0.8,0.1,1,0.2c0.2,0.1,0.4,0.4,0.6,0.7l5.2,11.9
		l5.3-12.1c0.3-0.5,0.7-0.8,1.1-0.8h2.6c0.4,0,0.7,0.3,0.6,0.8c0,0.1-0.1,0.3-0.3,0.7L-121.4,265.1z"/>
</g>
<g>
	<path class="st1" d="M-120.6,269.2c-10,0-18.2-8.2-18.2-18.2c0-7.2,4.2-13.7,10.8-16.6l0.5,1.2c-6.1,2.7-10,8.8-10,15.5
		c0,9.3,7.6,16.9,16.9,16.9c7.9,0,14.7-5.4,16.5-13.1l1.3,0.3C-104.8,263.4-112.1,269.2-120.6,269.2z"/>
</g>
<g>
	<path class="st1" d="M-102.6,253.3l-1.3-0.2c0.1-0.7,0.1-1.4,0.1-2.1c0.1-9.3-7.5-16.9-16.8-16.9c-1.8,0-3.6,0.3-5.3,0.8l-0.4-1.2
		c1.8-0.6,3.8-0.9,5.7-0.9c10,0,18.2,8.2,18.2,18.2C-102.4,251.8-102.5,252.5-102.6,253.3z"/>
</g>
<rect x="-619" y="301" class="st0" width="210" height="50"/>
<path class="st2" d="M-561.2,330.3c-1.9,10-10.7,17.5-21.2,17.5c-11.9,0-21.6-9.7-21.6-21.6c0-8.6,5.1-16.1,12.4-19.5"/>
<path class="st2" d="M-589.9,306.1c2.4-0.9,4.9-1.4,7.6-1.4c11.9,0,21.6,9.7,21.6,21.6c0,0.8,0,1.5-0.1,2.3"/>
<text transform="matrix(1 0 0 1 -558.5859 335.772)" class="st1" style="font-family:'Cloud-World'; font-size:42.9129px;">avun</text>
<text transform="matrix(1 0 0 1 -591.5215 333.4116)" class="st1" style="font-family:'Cloud-World'; font-size:38.1983px;">y</text>
<path class="st3" d="M-565.2,330.2c-1.8,7.8-8.8,13.6-17.1,13.6c-9.7,0-17.6-7.9-17.6-17.6c0-7.2,4.3-13.3,10.4-16"/>
<path class="st3" d="M-587.8,309.6c1.7-0.6,3.6-0.9,5.5-0.9c9.7,0,17.6,7.9,17.6,17.6c0,0.8,0,1.5-0.1,2.2"/>
<path class="st4" d="M-565.3,479.8c-3.6,19.2-20.5,33.7-40.7,33.7c-22.9,0-41.4-18.5-41.4-41.4c0-16.6,9.7-30.9,23.8-37.5"/>
<path class="st4" d="M-620.5,433.2c4.5-1.7,9.4-2.6,14.5-2.6c22.9,0,41.4,18.5,41.4,41.4c0,1.5-0.1,3-0.2,4.4"/>
<text transform="matrix(1 0 0 1 -558.1436 488.6182)" style="fill:#74838A; font-family:'Cloud-World'; font-size:64.9003px;">avun</text>
<text transform="matrix(1 0 0 1 -629.8936 497.6182)" style="fill:#74838A; font-family:'Cloud-World'; font-size:64.9003px;">Y</text>
<path class="st5" d="M-573.1,479.6c-3.4,15-16.9,26.2-32.9,26.2c-18.6,0-33.8-15.1-33.8-33.8c0-13.7,8.2-25.6,20-30.8"/>
<path class="st5" d="M-616.6,439.9c3.3-1.1,6.9-1.7,10.6-1.7c18.6,0,33.8,15.1,33.8,33.8c0,1.5-0.1,2.9-0.3,4.3"/>
</svg>
