<?xml version="1.0" encoding="utf-8"?>
<!-- Generator: Adobe Illustrator 19.1.0, SVG Export Plug-In . SVG Version: 6.00 Build 0)  -->
<!DOCTYPE svg PUBLIC "-//W3C//DTD SVG 1.1//EN" "http://www.w3.org/Graphics/SVG/1.1/DTD/svg11.dtd">
<svg version="1.1" id="Layer_1" xmlns="http://www.w3.org/2000/svg" xmlns:xlink="http://www.w3.org/1999/xlink" x="0px" y="0px"
	 viewBox="-563 376 153 50" style="enable-background:new -563 376 153 50;" xml:space="preserve">
<style type="text/css">
	.st0{fill:#14519A;}
	.st1{fill:#FFFFFF;}
	.st2{fill:none;stroke:#F2F2F2;stroke-width:0.25;stroke-miterlimit:10;}
	.st3{enable-background:new    ;}
	.st4{clip-path:url(#SVGID_2_);enable-background:new    ;}
	.st5{fill:#858585;}
	.st6{clip-path:url(#SVGID_4_);enable-background:new    ;}
	.st7{fill:#A8A8A8;}
	.st8{fill:#A3A3A3;}
	.st9{fill:#9E9E9E;}
	.st10{fill:#B4B4B4;}
	.st11{clip-path:url(#SVGID_6_);enable-background:new    ;}
	.st12{fill:#8A8A8A;}
	.st13{fill:#8F8F8F;}
	.st14{fill:#949494;}
	.st15{fill:#999999;}
	.st16{fill:#828282;}
	.st17{fill:#9A9A9A;}
	.st18{clip-path:url(#SVGID_8_);enable-background:new    ;}
	.st19{fill:#808080;}
	.st20{clip-path:url(#SVGID_10_);enable-background:new    ;}
</style>
<g>
	<rect x="-563" y="376" class="st0" width="153.9" height="50"/>
</g>
<g>
	<path class="st1" d="M-509.9,413.3c-1.5-0.5-2.7-1.1-3.5-1.8c-0.8-0.7-1.3-1.6-1.6-2.4s-0.4-1.8-0.4-2.7c0-2.2,0.7-3.8,2.2-4.9
		c1.5-1.1,3.7-1.8,6.5-2.4c1.2-0.2,2.4-0.4,3.3-0.5c1-0.1,1.7-0.2,2.3-0.4c0.6-0.1,1.1-0.2,1.5-0.4c0.4-0.1,0.7-0.2,1-0.4
		c0.2-0.1,0.5-0.2,0.5-0.4c0.1-0.1,0.1-0.4,0.1-0.7c0-1.2-0.4-2.2-1.2-2.7c-0.9-0.5-2.3-0.9-4.5-0.9c-2.8,0-5,0.1-6.4,0.4
		c-1.3,0.2-2.3,0.4-2.8,0.4c-0.4,0-0.5-0.1-0.5-0.5l-0.1-2.2c0-0.6,0.1-1.1,0.4-1.5c0.2-0.4,0.7-0.5,1.3-0.6
		c0.7-0.1,1.8-0.2,3.2-0.4c1.4-0.2,3.1-0.1,5-0.1c3.9,0,6.7,0.7,8.4,2.1c1.8,1.5,2.7,3.8,2.7,7.1v13.7c0,1.2-0.6,2-2,2.2
		s-2.9,0.5-4.5,0.5s-3.3,0.1-5,0.1C-506.3,414.1-508.4,413.8-509.9,413.3z M-497.9,401.7l-9.3,1.7c-1.8,0.4-2.7,1.3-2.7,2.8
		c0,1.2,0.6,2.1,1.7,2.6c1.1,0.5,2.7,0.6,4.7,0.6c1.1,0,2.1,0,3.2-0.1s1.8-0.2,2.3-0.4v-7.2H-497.9z"/>
	<path class="st1" d="M-469.9,389.1c0.1-0.4,0.2-0.7,0.5-1c0.2-0.2,0.6-0.2,1.2-0.2h3.7c0.4,0,0.6,0.2,0.6,0.6c0,0.1,0,0.2,0,0.4
		c0,0.2-0.1,0.2-0.2,0.5l-9.3,24.2c-0.2,0.5-0.6,0.7-1.1,0.7h-5.6c-0.4,0-0.5-0.1-0.7-0.2c-0.1-0.1-0.2-0.4-0.4-0.6l-8.9-24
		c-0.1-0.2-0.1-0.5-0.1-0.7c0-0.4,0.2-0.6,0.6-0.6h3.9c1.1,0,1.7,0.4,2,1.2l6.7,19.7h0.1L-469.9,389.1z"/>
	<path class="st1" d="M-462.4,405.1v-16.5c0-0.4,0.2-0.6,0.6-0.6h4.4c0.4,0,0.6,0.2,0.6,0.6v15.7c0,2,0.4,3.3,1.2,4
		c0.8,0.7,2.3,1,4.7,1c1.7,0,3.1,0,3.9-0.1c0.9,0,1.6-0.1,2.1-0.2s0.7-0.4,0.7-0.9v-19.5c0-0.4,0.2-0.6,0.6-0.6h4.3
		c0.5,0,0.7,0.2,0.7,0.6v22.5c0,1.2-0.6,2.1-2,2.2c-1.5,0.4-3.1,0.6-4.7,0.7c-1.6,0.1-3.7,0.2-6.1,0.2c-3.9,0-6.9-0.7-8.6-2.1
		C-461.5,410.8-462.4,408.4-462.4,405.1z"/>
	<path class="st1" d="M-412.8,397.2v16.5c0,0.4-0.2,0.6-0.6,0.6h-4.4c-0.4,0-0.6-0.2-0.6-0.6V398c0-2-0.4-3.3-1.2-4
		c-0.9-0.6-2.3-1-4.7-1c-1.7,0-3.1,0-3.9,0.1c-0.9,0-1.6,0.1-2.1,0.2c-0.5,0.1-0.7,0.4-0.7,0.9v19.5c0,0.4-0.2,0.6-0.6,0.6h-4.4
		c-0.5,0-0.7-0.2-0.7-0.6v-22.5c0-1.2,0.6-2.1,2-2.2c1.5-0.4,3.1-0.6,4.7-0.7s3.7-0.2,6.1-0.2c3.9,0,6.9,0.7,8.6,2.1
		C-413.6,391.6-412.8,393.9-412.8,397.2z"/>
</g>
<circle class="st2" cx="-538.8" cy="400.1" r="21.3"/>
<g>
	<g class="st3">
		<g class="st3">
			<defs>
				<path id="SVGID_1_" class="st3" d="M-540.5,418.6l-3.2-1.7c-0.1,0-0.1-0.1-0.1-0.2l3.2,1.7
					C-540.6,418.5-540.5,418.5-540.5,418.6z"/>
			</defs>
			<clipPath id="SVGID_2_">
				<use xlink:href="#SVGID_1_"  style="overflow:visible;"/>
			</clipPath>
			<g class="st4">
				<path class="st5" d="M-540.5,418.6l-3.2-1.7c-0.1,0-0.1-0.1-0.1-0.2l3.2,1.7C-540.6,418.5-540.5,418.5-540.5,418.6"/>
			</g>
		</g>
		<g class="st3">
			<defs>
				<path id="SVGID_3_" class="st3" d="M-528.1,387l3.2,1.7c-0.1,0-0.2,0-0.3,0l-3.2-1.7C-528.3,387-528.2,387-528.1,387z"/>
			</defs>
			<clipPath id="SVGID_4_">
				<use xlink:href="#SVGID_3_"  style="overflow:visible;"/>
			</clipPath>
			<g class="st6">
				<path class="st7" d="M-525.2,388.7l-3.2-1.7c0.1,0,0.2,0,0.2,0l3.2,1.7C-525.1,388.7-525.2,388.7-525.2,388.7"/>
				<path class="st8" d="M-525,388.7l-3.2-1.7c0,0,0,0,0.1,0L-525,388.7C-525,388.7-525,388.7-525,388.7"/>
				<polyline class="st9" points="-525,388.7 -528.2,387 -528.1,387 -525,388.7 -525,388.7 				"/>
			</g>
		</g>
		<g>
			<polygon class="st10" points="-529.2,389.3 -532.4,387.5 -528.4,387 -525.2,388.7 			"/>
		</g>
		<g class="st3">
			<defs>
				<path id="SVGID_5_" class="st3" d="M-530.2,390.2l-3.2-1.7c0.2-0.6,0.6-0.9,1-1l3.2,1.7C-529.6,389.3-530,389.7-530.2,390.2z"/>
			</defs>
			<clipPath id="SVGID_6_">
				<use xlink:href="#SVGID_5_"  style="overflow:visible;"/>
			</clipPath>
			<g class="st11">
				<path class="st12" d="M-530.2,390.2l-3.2-1.7c0-0.1,0.1-0.2,0.1-0.2l3.2,1.7C-530.1,390.1-530.2,390.1-530.2,390.2"/>
				<path class="st13" d="M-530.1,390l-3.2-1.7c0-0.1,0.1-0.2,0.1-0.2l3.2,1.7C-530,389.8-530.1,389.9-530.1,390"/>
				<path class="st14" d="M-530,389.8l-3.2-1.7c0-0.1,0.1-0.1,0.1-0.1l3.2,1.7C-529.9,389.7-529.9,389.7-530,389.8"/>
				<path class="st15" d="M-529.9,389.6l-3.2-1.7c0,0,0.1-0.1,0.1-0.1l3.2,1.7C-529.8,389.6-529.8,389.6-529.9,389.6"/>
				<path class="st9" d="M-529.7,389.5l-3.2-1.7c0,0,0.1-0.1,0.1-0.1l3.2,1.7C-529.7,389.5-529.7,389.5-529.7,389.5"/>
				<path class="st8" d="M-529.6,389.4l-3.2-1.7c0,0,0.1-0.1,0.1-0.1l3.2,1.7C-529.5,389.4-529.6,389.4-529.6,389.4"/>
				<path class="st7" d="M-529.5,389.3l-3.2-1.7c0.1,0,0.2-0.1,0.3-0.1l3.2,1.7C-529.3,389.3-529.4,389.3-529.5,389.3"/>
			</g>
		</g>
		<g>
			<polygon class="st16" points="-540.6,418.4 -543.8,416.6 -543.8,406.4 -540.6,408.2 			"/>
		</g>
		<g>
			<polygon class="st17" points="-537.9,403.1 -541.1,401.3 -533.4,388.5 -530.2,390.2 			"/>
		</g>
		<g class="st3">
			<defs>
				<path id="SVGID_7_" class="st3" d="M-548.3,390.3l3.2,1.7c-0.5-0.3-1.1-0.3-1.9-0.2l-3.2-1.7
					C-549.4,389.9-548.8,390-548.3,390.3z"/>
			</defs>
			<clipPath id="SVGID_8_">
				<use xlink:href="#SVGID_7_"  style="overflow:visible;"/>
			</clipPath>
			<g class="st18">
				<path class="st7" d="M-547.1,391.8l-3.2-1.7c0.6-0.1,1.1-0.1,1.5,0l3.2,1.7C-546,391.7-546.5,391.7-547.1,391.8"/>
				<path class="st8" d="M-545.6,391.8l-3.2-1.7c0.1,0,0.3,0.1,0.4,0.1l3.2,1.7C-545.3,391.9-545.4,391.8-545.6,391.8"/>
				<path class="st9" d="M-545.2,392l-3.2-1.7c0,0,0,0,0.1,0L-545.2,392C-545.1,392-545.2,392-545.2,392"/>
			</g>
		</g>
		<g>
			<polygon class="st19" points="-540.6,408.2 -543.8,406.4 -553.5,391.8 -550.3,393.6 			"/>
		</g>
		<g>
			<polygon class="st10" points="-550.3,392.2 -553.4,390.5 -550.3,390 -547.1,391.8 			"/>
		</g>
		<g class="st3">
			<defs>
				<path id="SVGID_9_" class="st3" d="M-550.3,393.6l-3.2-1.7c-0.3-0.4-0.4-0.7-0.4-0.7c0-0.4,0.2-0.6,0.5-0.6l3.2,1.7
					c-0.3,0-0.5,0.3-0.5,0.6C-550.7,392.9-550.6,393.1-550.3,393.6z"/>
			</defs>
			<clipPath id="SVGID_10_">
				<use xlink:href="#SVGID_9_"  style="overflow:visible;"/>
			</clipPath>
			<g class="st20">
				<path class="st5" d="M-550.3,393.6l-3.2-1.7c-0.3-0.4-0.4-0.7-0.4-0.7c0-0.1,0-0.2,0-0.3l3.2,1.7c0,0.1,0,0.2,0,0.3
					C-550.7,392.9-550.6,393.1-550.3,393.6"/>
				<path class="st12" d="M-550.7,392.6l-3.2-1.7c0,0,0,0,0-0.1L-550.7,392.6C-550.7,392.5-550.7,392.5-550.7,392.6"/>
				<path class="st13" d="M-550.7,392.5l-3.2-1.7c0,0,0,0,0,0L-550.7,392.5C-550.7,392.5-550.7,392.5-550.7,392.5"/>
				<path class="st14" d="M-550.6,392.4l-3.2-1.7c0,0,0,0,0,0L-550.6,392.4C-550.6,392.4-550.6,392.4-550.6,392.4"/>
				<path class="st15" d="M-550.6,392.4l-3.2-1.7c0,0,0,0,0,0L-550.6,392.4C-550.6,392.4-550.6,392.4-550.6,392.4"/>
				<path class="st9" d="M-550.6,392.4l-3.2-1.7c0,0,0,0,0,0L-550.6,392.4C-550.5,392.3-550.6,392.3-550.6,392.4"/>
				<path class="st8" d="M-550.5,392.3l-3.2-1.7c0,0,0,0,0.1,0L-550.5,392.3C-550.5,392.3-550.5,392.3-550.5,392.3"/>
				<path class="st7" d="M-550.5,392.3l-3.2-1.7c0.1,0,0.1,0,0.2-0.1l3.2,1.7C-550.3,392.2-550.4,392.3-550.5,392.3"/>
			</g>
		</g>
		<g>
			<path class="st1" d="M-525.2,388.7c0.3,0,0.4,0.1,0.4,0.3c0,0.1-10.8,18.8-10.8,18.8l0,7.9c0,1.4-0.7,2.3-2.1,2.5l-2.7,0.4
				c-0.2,0-0.2,0-0.3-0.2l0-10.2l-9.7-14.6c-0.3-0.4-0.4-0.7-0.4-0.7c0-0.4,0.2-0.6,0.5-0.6l3.2-0.4c1.2-0.2,2.1,0.1,2.5,0.7
				l6.6,10.6l7.7-12.8c0.2-0.6,0.6-0.9,1-1L-525.2,388.7z"/>
		</g>
	</g>
</g>
<path class="st0" d="M-547.8,381"/>
</svg>
