<svg xmlns="http://www.w3.org/2000/svg" xmlns:xlink="http://www.w3.org/1999/xlink" preserveAspectRatio="xMidYMid" width="165" height="51" viewBox="0 0 165 51">
  <defs>
    <style>
      .cls-1 {
        fill: #00a47d;
      }

      .cls-2, .cls-3 {
        font-size: 45px;
      }

      .cls-3 {
        fill: #fff;
        text-anchor: middle;
        font-family: "Verdana";
      }

      .cls-4 {
        fill: #00b98d;
        stroke: #00b98d;
        stroke-width: 1px;
        fill-rule: evenodd;
      }
    </style>
  </defs>
  <rect x="-11" y="-2" width="220" height="55" class="cls-1"/>
  <text x="107" y="39" class="cls-2"><tspan x="107" class="cls-3">avun </tspan></text>
  <path d="M30.024,44.564 L2.835,29.884 L31.566,43.890 L31.879,43.730 L32.152,43.577 L32.473,43.417 L32.762,43.240 L2.257,26.523 L34.312,42.238 L34.504,42.109 L34.729,41.941 L34.906,41.804 L35.107,41.660 L2.442,23.563 L36.624,40.336 L36.745,40.256 L36.881,40.120 L36.986,39.983 L37.114,39.863 L2.835,20.715 L38.527,38.283 L38.624,38.178 L38.688,38.082 L38.760,37.986 L38.856,37.882 L3.630,18.028 L40.109,36.005 L40.181,35.868 L40.270,35.732 L4.794,15.589 L41.354,33.582 L41.378,33.502 L41.418,33.405 L6.384,13.367 L42.261,30.991 L42.285,30.927 L42.301,30.887 L8.175,11.241 L42.839,28.223 L42.839,28.167 L10.536,9.412 L43.000,25.255 L43.000,25.223 L13.041,7.687 L42.719,22.022 L42.325,20.242 L41.787,18.501 L41.113,16.880 L40.270,15.292 L39.314,13.800 L38.262,12.412 L37.058,11.089 L35.773,9.901 L34.392,8.819 L32.882,7.848 L31.341,7.014 L29.687,6.308 L27.976,5.770 L26.186,5.337 L24.379,5.096 L22.500,5.000 L20.420,5.104 L18.389,5.433 L16.413,5.915 L14.535,6.588 L12.752,7.487 L11.066,8.498 L9.484,9.701 L8.006,11.033 L6.698,12.468 L5.493,14.057 L4.481,15.749 L3.630,17.530 L2.899,19.407 L2.410,21.381 L2.096,23.402 L2.000,25.512 L2.096,27.590 L2.410,29.603 L2.899,31.576 L3.630,33.454 L4.481,35.259 L5.493,36.935 L6.698,38.515 L8.006,39.983 L9.484,41.323 L11.066,42.510 L12.752,43.497 L14.535,44.387 L16.413,45.093 L18.389,45.575 L20.420,45.896 L22.500,46.000 L22.998,45.984 L23.496,45.984 L23.969,45.936 L24.475,45.904 L24.949,45.863 L25.431,45.783 L25.921,45.719 L26.394,45.623 L26.868,45.535 L27.326,45.430 L27.800,45.318 L28.241,45.174 L28.715,45.037 L29.173,44.877 L29.598,44.724 L30.024,44.564 Z" class="cls-4"/>
  <text transform="translate(22 42) scale(1 0.85)" class="cls-2"><tspan x="0" class="cls-3">Y</tspan></text>
</svg>
