<?xml version="1.0" encoding="utf-8"?>
<!-- Generator: Adobe Illustrator 19.1.0, SVG Export Plug-In . SVG Version: 6.00 Build 0)  -->
<!DOCTYPE svg PUBLIC "-//W3C//DTD SVG 1.1//EN" "http://www.w3.org/Graphics/SVG/1.1/DTD/svg11.dtd">
<svg version="1.1" id="Layer_1" xmlns="http://www.w3.org/2000/svg" xmlns:xlink="http://www.w3.org/1999/xlink" x="0px" y="0px"
	 viewBox="0 0 210 50" style="enable-background:new 0 0 210 50;" xml:space="preserve">
<style type="text/css">
	.st0{fill:#24ACE3;}
	.st1{fill:#FFFFFF;}
	.st2{fill:none;stroke:#FFFFFF;stroke-width:0.7807;stroke-miterlimit:10;}
	.st3{fill:none;stroke:#FFFFFF;stroke-width:1.3012;stroke-miterlimit:10;}
	.st4{fill:none;stroke:#D2D3D4;stroke-width:1.5;stroke-miterlimit:10;}
	.st5{fill:none;stroke:#D2D3D4;stroke-width:2.5;stroke-miterlimit:10;}
</style>
<g>
	<rect class="st0" width="210" height="50"/>
</g>
<g>
	<path class="st1" d="M36.7,47.2c-12.1,0-21.9-9.8-21.9-21.9c0-8.5,5-16.3,12.6-19.9l0.3,0.7c-7.4,3.5-12.2,11-12.2,19.2
		c0,11.7,9.5,21.2,21.2,21.2c10.2,0,18.9-7.2,20.8-17.2l0.8,0.1C56.3,39.7,47.2,47.2,36.7,47.2z"/>
</g>
<g>
	<path class="st1" d="M58.5,27.6l-0.8-0.1c0.1-0.7,0.1-1.5,0.1-2.3c0-11.7-9.5-21.2-21.2-21.2c-2.6,0-5,0.4-7.4,1.3L29,4.7
		c2.5-0.9,5-1.4,7.7-1.4c12.1,0,21.9,9.8,21.9,21.9C58.6,26.1,58.6,26.9,58.5,27.6z"/>
</g>
<g>
	<path class="st1" d="M65.5,34.1c-1.2-0.4-2.2-0.9-2.9-1.5c-0.7-0.6-1.1-1.3-1.3-2c-0.2-0.7-0.3-1.5-0.3-2.2c0-1.8,0.6-3.1,1.8-4
		c1.2-0.9,3-1.5,5.3-2c1-0.2,2-0.3,2.7-0.4c0.8-0.1,1.4-0.2,1.9-0.3c0.5-0.1,0.9-0.2,1.2-0.3c0.3-0.1,0.6-0.2,0.8-0.3
		c0.2-0.1,0.4-0.2,0.4-0.3c0.1-0.1,0.1-0.3,0.1-0.6c0-1-0.3-1.8-1-2.2c-0.7-0.4-1.9-0.7-3.7-0.7c-2.3,0-4.1,0.1-5.2,0.3
		s-1.9,0.3-2.3,0.3c-0.3,0-0.4-0.1-0.4-0.4l-0.1-1.8c0-0.5,0.1-0.9,0.3-1.2s0.6-0.4,1.1-0.5c0.6-0.1,1.5-0.2,2.6-0.3
		c1.1-0.1,2.5-0.1,4.1-0.1c3.2,0,5.5,0.6,6.9,1.7c1.5,1.2,2.2,3.1,2.2,5.8v11.2c0,1-0.5,1.6-1.6,1.8c-1.1,0.2-2.4,0.4-3.7,0.4
		s-2.7,0.1-4.1,0.1C68.4,34.7,66.7,34.5,65.5,34.1z M75.3,24.6l-7.6,1.4c-1.5,0.3-2.2,1.1-2.2,2.3c0,1,0.5,1.7,1.4,2.1
		c0.9,0.4,2.2,0.5,3.8,0.5c0.9,0,1.7,0,2.6-0.1c0.9-0.1,1.5-0.2,1.9-0.3V24.6z"/>
	<path class="st1" d="M98.2,14.3c0.1-0.3,0.2-0.6,0.4-0.8c0.2-0.2,0.5-0.2,1-0.2h3c0.3,0,0.5,0.2,0.5,0.5c0,0.1,0,0.2,0,0.3
		s-0.1,0.2-0.2,0.4l-7.6,19.8c-0.2,0.4-0.5,0.6-0.9,0.6h-4.6c-0.3,0-0.4-0.1-0.6-0.2c-0.1-0.1-0.2-0.3-0.3-0.5l-7.3-19.6
		c-0.1-0.2-0.1-0.4-0.1-0.6c0-0.3,0.2-0.5,0.5-0.5h3.2c0.9,0,1.4,0.3,1.6,1l5.5,16.1h0.1L98.2,14.3z"/>
	<path class="st1" d="M104.3,27.4V13.9c0-0.3,0.2-0.5,0.5-0.5h3.6c0.3,0,0.5,0.2,0.5,0.5v12.8c0,1.6,0.3,2.7,1,3.3s1.9,0.8,3.8,0.8
		c1.4,0,2.5,0,3.2-0.1c0.7,0,1.3-0.1,1.7-0.2s0.6-0.3,0.6-0.7V13.9c0-0.3,0.2-0.5,0.5-0.5h3.5c0.4,0,0.6,0.2,0.6,0.5v18.4
		c0,1-0.5,1.7-1.6,1.8c-1.2,0.3-2.5,0.5-3.8,0.6c-1.3,0.1-3,0.2-5,0.2c-3.2,0-5.6-0.6-7-1.7C105,32,104.3,30.1,104.3,27.4z"/>
	<path class="st1" d="M144.8,20.9v13.5c0,0.3-0.2,0.5-0.5,0.5h-3.6c-0.3,0-0.5-0.2-0.5-0.5V21.6c0-1.6-0.3-2.7-1-3.3
		c-0.7-0.5-1.9-0.8-3.8-0.8c-1.4,0-2.5,0-3.2,0.1c-0.7,0-1.3,0.1-1.7,0.2c-0.4,0.1-0.6,0.3-0.6,0.7v15.9c0,0.3-0.2,0.5-0.5,0.5h-3.5
		c-0.4,0-0.6-0.2-0.6-0.5V16c0-1,0.5-1.7,1.6-1.8c1.2-0.3,2.5-0.5,3.8-0.6s3-0.2,5-0.2c3.2,0,5.6,0.6,7,1.7S144.8,18.2,144.8,20.9z"
		/>
</g>
<g>
	<path class="st1" d="M35.9,39.4c-0.2,0.5-0.6,0.8-1.1,0.8h-3c-0.4,0-0.7-0.2-0.6-0.7c0-0.2,0.1-0.4,0.3-0.8l3.8-8.2l-5.8-13
		c-0.8-1.7-1.3-2.8-1.5-3.2c-0.2-0.5-0.2-0.8,0-0.9c0.2-0.1,0.5-0.2,0.9-0.2h2.1c0.5,0,0.8,0.1,1,0.2c0.2,0.1,0.4,0.4,0.6,0.7
		l5.2,11.9l5.3-12.1c0.3-0.5,0.7-0.8,1.1-0.8h2.6c0.4,0,0.7,0.3,0.6,0.8c0,0.1-0.1,0.3-0.3,0.7L35.9,39.4z"/>
</g>
<g>
	<path class="st1" d="M36.7,43.5c-10,0-18.2-8.2-18.2-18.2c0-7.2,4.2-13.7,10.8-16.6l0.5,1.2c-6.1,2.7-10,8.8-10,15.5
		c0,9.3,7.6,16.9,16.9,16.9c7.9,0,14.7-5.4,16.5-13.1l1.3,0.3C52.5,37.7,45.2,43.5,36.7,43.5z"/>
</g>
<g>
	<path class="st1" d="M54.7,27.6l-1.3-0.2c0.1-0.7,0.1-1.4,0.1-2.1C53.6,16,46,8.4,36.7,8.4c-1.8,0-3.6,0.3-5.3,0.8L31,8
		c1.8-0.6,3.8-0.9,5.7-0.9c10,0,18.2,8.2,18.2,18.2C54.9,26.1,54.8,26.8,54.7,27.6z"/>
</g>
<rect x="-475" y="75" class="st0" width="210" height="50"/>
<path class="st2" d="M-417.2,104.3c-1.9,10-10.7,17.5-21.2,17.5c-11.9,0-21.6-9.7-21.6-21.6c0-8.6,5.1-16.1,12.4-19.5"/>
<path class="st2" d="M-445.9,80.1c2.4-0.9,4.9-1.4,7.6-1.4c11.9,0,21.6,9.7,21.6,21.6c0,0.8,0,1.5-0.1,2.3"/>
<text transform="matrix(1 0 0 1 -414.5859 109.772)" class="st1" style="font-family:'Cloud-World'; font-size:42.9129px;">avun</text>
<text transform="matrix(1 0 0 1 -447.5215 107.4116)" class="st1" style="font-family:'Cloud-World'; font-size:38.1983px;">y</text>
<path class="st3" d="M-421.2,104.2c-1.8,7.8-8.8,13.6-17.1,13.6c-9.7,0-17.6-7.9-17.6-17.6c0-7.2,4.3-13.3,10.4-16"/>
<path class="st3" d="M-443.8,83.6c1.7-0.6,3.6-0.9,5.5-0.9c9.7,0,17.6,7.9,17.6,17.6c0,0.8,0,1.5-0.1,2.2"/>
<path class="st4" d="M-421.3,253.8c-3.6,19.2-20.5,33.7-40.7,33.7c-22.9,0-41.4-18.5-41.4-41.4c0-16.6,9.7-30.9,23.8-37.5"/>
<path class="st4" d="M-476.5,207.2c4.5-1.7,9.4-2.6,14.5-2.6c22.9,0,41.4,18.5,41.4,41.4c0,1.5-0.1,3-0.2,4.4"/>
<text transform="matrix(1 0 0 1 -414.1436 262.6182)" style="fill:#74838A; font-family:'Cloud-World'; font-size:64.9003px;">avun</text>
<text transform="matrix(1 0 0 1 -485.8936 271.6182)" style="fill:#74838A; font-family:'Cloud-World'; font-size:64.9003px;">Y</text>
<path class="st5" d="M-429.1,253.6c-3.4,15-16.9,26.2-32.9,26.2c-18.6,0-33.8-15.1-33.8-33.8c0-13.7,8.2-25.6,20-30.8"/>
<path class="st5" d="M-472.6,213.9c3.3-1.1,6.9-1.7,10.6-1.7c18.6,0,33.8,15.1,33.8,33.8c0,1.5-0.1,2.9-0.3,4.3"/>
</svg>
