<?xml version="1.0" encoding="utf-8"?>
<!-- Generator: Adobe Illustrator 19.1.0, SVG Export Plug-In . SVG Version: 6.00 Build 0)  -->
<!DOCTYPE svg PUBLIC "-//W3C//DTD SVG 1.1//EN" "http://www.w3.org/Graphics/SVG/1.1/DTD/svg11.dtd">
<svg version="1.1" id="Layer_1" xmlns="http://www.w3.org/2000/svg" xmlns:xlink="http://www.w3.org/1999/xlink" x="0px" y="0px"
	 viewBox="0 0 210 50" style="enable-background:new 0 0 210 50;" xml:space="preserve">
<style type="text/css">
	.st0{fill:#24ACE3;}
	.st1{fill:none;stroke:#FFFFFF;stroke-width:0.7527;stroke-miterlimit:10;}
	.st2{fill:#FFFFFF;}
	.st3{font-family:'Cloud-World';}
	.st4{font-size:40.5784px;}
	.st5{font-size:29.7607px;} 
	.st6{fill:none;stroke:#FFFFFF;stroke-width:1.2545;stroke-miterlimit:10;}
</style>
<rect class="st0" width="210" height="50"/>
<path class="st1" d="M51.4,29.1C49.6,38.7,41.1,46,31,46c-11.5,0-20.8-9.3-20.8-20.8c0-8.3,4.9-15.5,11.9-18.8"/>
<path class="st1" d="M23.7,5.7C26,4.9,28.4,4.4,31,4.4c11.5,0,20.8,9.3,20.8,20.8c0,0.8,0,1.5-0.1,2.2"/>
<text transform="matrix(1 0 0 1 55.526 35.8613)" class="st2 st3 st4">avun</text>
<text transform="matrix(1 0 0 1 20.0089 37.2412)" class="st2 st3 st5">Y</text>
<path class="st6" d="M47.5,29C45.8,36.5,39,42.2,31,42.2c-9.4,0-16.9-7.6-16.9-16.9c0-6.9,4.1-12.8,10-15.5"/>
<path class="st6" d="M25.7,9.1c1.7-0.6,3.5-0.8,5.3-0.8c9.4,0,16.9,7.6,16.9,16.9c0,0.7,0,1.4-0.1,2.2"/>
</svg>
